<svg width="599" height="948" viewBox="0 0 599 948" fill="none" xmlns="http://www.w3.org/2000/svg">
<path d="M299.212 0L598.424 172.75V518.25L299.212 948L0 518.25V172.75L299.212 0Z" fill="#3B9C6A"/>
<path d="M299.712 77L532.673 211.5V480.5L299.712 615L66.751 480.5V211.5L299.712 77Z" fill="#1C1C1C"/>
<path d="M426.587 281.5C426.572 268.741 421.497 256.509 412.475 247.486C403.453 238.464 391.221 233.389 378.462 233.375H212.212C201.413 233.385 190.932 237.028 182.453 243.716C173.975 250.403 167.992 259.749 165.467 270.248C162.943 280.747 164.022 291.791 168.533 301.602C173.044 311.414 180.723 319.423 190.337 324.342V412.75C190.337 418.552 192.641 424.116 196.744 428.218C200.846 432.32 206.41 434.625 212.212 434.625H378.462C384.263 434.625 389.827 432.32 393.93 428.218C398.032 424.116 400.337 418.552 400.337 412.75V324.342C408.234 320.312 414.865 314.179 419.497 306.619C424.129 299.059 426.582 290.366 426.587 281.5ZM216.587 328.859C219.495 327.82 221.944 325.788 223.502 323.121C225.06 320.454 225.628 317.323 225.106 314.279C224.583 311.235 223.004 308.473 220.645 306.478C218.287 304.484 215.3 303.385 212.212 303.375C206.41 303.375 200.846 301.07 196.744 296.968C192.641 292.866 190.337 287.302 190.337 281.5C190.337 275.698 192.641 270.134 196.744 266.032C200.846 261.93 206.41 259.625 212.212 259.625H312.837C318.638 259.625 324.202 261.93 328.305 266.032C332.407 270.134 334.712 275.698 334.712 281.5C334.712 287.302 332.407 292.866 328.305 296.968C324.202 301.07 318.638 303.375 312.837 303.375C309.748 303.385 306.762 304.484 304.403 306.478C302.045 308.473 300.466 311.235 299.943 314.279C299.42 317.323 299.988 320.454 301.546 323.121C303.104 325.788 305.553 327.82 308.462 328.859V408.375H216.587V328.859ZM378.462 303.375C375.373 303.385 372.387 304.484 370.028 306.478C367.67 308.473 366.091 311.235 365.568 314.279C365.045 317.323 365.613 320.454 367.171 323.121C368.729 325.788 371.178 327.82 374.087 328.859V408.375H334.712V324.342C340.344 321.476 345.355 317.527 349.459 312.721C353.562 307.915 356.677 302.346 358.625 296.335C360.573 290.323 361.315 283.986 360.81 277.686C360.304 271.387 358.561 265.249 355.679 259.625H378.462C384.263 259.625 389.827 261.93 393.93 266.032C398.032 270.134 400.337 275.698 400.337 281.5C400.337 287.302 398.032 292.866 393.93 296.968C389.827 301.07 384.263 303.375 378.462 303.375Z" fill="#3B9C6A"/>
</svg>
