<svg width="599" height="948" viewBox="0 0 599 948" fill="none" xmlns="http://www.w3.org/2000/svg">
<g clip-path="url(#clip0_10_13)">
<path d="M299.212 0L598.424 172.75V518.25L299.212 948L0 518.25V172.75L299.212 0Z" fill="#CA6740"/>
<path d="M299.712 77L532.673 211.5V480.5L299.712 615L66.751 480.5V211.5L299.712 77Z" fill="#1C1C1C"/>
<path d="M414.785 255.589C413.554 254.114 412.013 252.927 410.273 252.112C408.532 251.298 406.634 250.875 404.712 250.875H231.899L225.916 217.898C225.366 214.876 223.773 212.143 221.415 210.174C219.056 208.205 216.082 207.126 213.01 207.125H185.962C182.481 207.125 179.142 208.508 176.681 210.969C174.22 213.431 172.837 216.769 172.837 220.25C172.837 223.731 174.22 227.069 176.681 229.531C179.142 231.992 182.481 233.375 185.962 233.375H202.051L229.296 383.219C230.028 387.199 231.541 390.994 233.748 394.386C229.84 398.958 227.177 404.46 226.014 410.361C224.852 416.261 225.23 422.362 227.111 428.075C228.993 433.787 232.315 438.918 236.756 442.973C241.198 447.028 246.609 449.87 252.469 451.225C258.329 452.58 264.439 452.403 270.21 450.709C275.981 449.016 281.218 445.864 285.416 441.557C289.614 437.251 292.632 431.935 294.178 426.123C295.724 420.311 295.747 414.198 294.243 408.375H331.431C329.606 415.442 330.036 422.902 332.661 429.713C335.286 436.523 339.974 442.342 346.07 446.356C352.166 450.37 359.364 452.378 366.657 452.099C373.95 451.82 380.974 449.268 386.745 444.8C392.516 440.332 396.746 434.172 398.843 427.181C400.94 420.19 400.799 412.718 398.44 405.812C396.081 398.905 391.622 392.908 385.686 388.661C379.75 384.414 372.635 382.129 365.337 382.125H259.429C258.406 382.124 257.416 381.764 256.631 381.109C255.845 380.453 255.315 379.544 255.131 378.538L252.593 364.625H374.196C381.37 364.625 388.316 362.107 393.823 357.509C399.33 352.912 403.048 346.527 404.329 339.469L417.629 266.341C417.971 264.45 417.894 262.507 417.402 260.649C416.911 258.791 416.017 257.064 414.785 255.589ZM269.087 417.125C269.087 418.856 268.574 420.547 267.612 421.986C266.651 423.425 265.284 424.547 263.685 425.209C262.086 425.871 260.327 426.044 258.63 425.707C256.932 425.369 255.373 424.536 254.15 423.312C252.926 422.088 252.093 420.529 251.755 418.832C251.417 417.135 251.591 415.375 252.253 413.777C252.915 412.178 254.037 410.811 255.476 409.85C256.914 408.888 258.606 408.375 260.337 408.375C262.657 408.375 264.883 409.297 266.524 410.938C268.165 412.579 269.087 414.804 269.087 417.125ZM365.337 425.875C363.606 425.875 361.914 425.362 360.476 424.4C359.037 423.439 357.915 422.072 357.253 420.473C356.591 418.875 356.417 417.115 356.755 415.418C357.093 413.721 357.926 412.162 359.15 410.938C360.373 409.714 361.932 408.881 363.63 408.543C365.327 408.206 367.086 408.379 368.685 409.041C370.284 409.703 371.651 410.825 372.612 412.264C373.574 413.703 374.087 415.394 374.087 417.125C374.087 419.446 373.165 421.671 371.524 423.312C369.883 424.953 367.657 425.875 365.337 425.875ZM378.462 334.788C378.279 335.788 377.753 336.694 376.974 337.348C376.196 338.003 375.213 338.366 374.196 338.375H247.824L236.69 277.125H388.984L378.462 334.788Z" fill="#CA6740"/>
</g>
<defs>
<clipPath id="clip0_10_13">
<rect width="599" height="948" fill="white"/>
</clipPath>
</defs>
</svg>
