<svg width="599" height="948" viewBox="0 0 599 948" fill="none" xmlns="http://www.w3.org/2000/svg">
<g clip-path="url(#clip0_10_9)">
<path d="M299.212 0L598.424 172.75V518.25L299.212 948L0 518.25V172.75L299.212 0Z" fill="#CA6740"/>
<path d="M299.712 77L532.673 211.5V480.5L299.712 615L66.751 480.5V211.5L299.712 77Z" fill="#1C1C1C"/>
<path d="M416.915 299.625C416.923 298.41 416.762 297.199 416.435 296.029L400.785 241.329C399.474 236.787 396.726 232.791 392.954 229.94C389.182 227.09 384.588 225.537 379.86 225.516H218.563C213.835 225.537 209.241 227.09 205.469 229.94C201.697 232.791 198.95 236.787 197.638 241.329L182.01 296.029C181.676 297.198 181.508 298.409 181.509 299.625V317.062C181.508 324.129 183.07 331.109 186.085 337.5C189.1 343.892 193.492 349.536 198.946 354.03V430.406C198.946 433.875 200.324 437.201 202.777 439.654C205.229 442.106 208.556 443.484 212.024 443.484H386.399C389.868 443.484 393.194 442.106 395.647 439.654C398.1 437.201 399.477 433.875 399.477 430.406V354.03C404.932 349.536 409.324 343.892 412.338 337.5C415.353 331.109 416.916 324.129 416.915 317.062V299.625ZM221.887 251.672H376.591L386.552 286.547H211.926L221.887 251.672ZM321.063 312.703V317.062C321.063 322.843 318.767 328.388 314.679 332.475C310.591 336.563 305.047 338.859 299.266 338.859C293.485 338.859 287.941 336.563 283.854 332.475C279.766 328.388 277.469 322.843 277.469 317.062V312.703H321.063ZM217.474 335.274C214.458 333.288 211.983 330.584 210.271 327.406C208.559 324.227 207.664 320.673 207.665 317.062V312.703H251.259V317.062C251.259 322.843 248.962 328.388 244.875 332.475C240.787 336.563 235.243 338.859 229.462 338.859C226.023 338.861 222.633 338.039 219.577 336.462C218.916 335.999 218.211 335.601 217.474 335.274ZM373.321 417.328H225.102V364.809C226.541 364.939 227.991 365.016 229.462 365.016C235.998 365.018 242.465 363.679 248.464 361.083C254.462 358.487 259.865 354.688 264.337 349.921C268.81 354.687 274.213 358.485 280.211 361.081C286.209 363.677 292.676 365.017 299.212 365.017C305.748 365.017 312.215 363.677 318.213 361.081C324.211 358.485 329.613 354.687 334.087 349.921C338.559 354.688 343.961 358.487 349.96 361.083C355.958 363.679 362.426 365.018 368.962 365.016C370.433 365.016 371.883 364.939 373.321 364.809V417.328ZM390.759 317.062C390.76 320.673 389.864 324.227 388.152 327.406C386.44 330.584 383.965 333.288 380.95 335.274C380.232 335.605 379.546 336.003 378.901 336.462C375.578 338.164 371.874 338.985 368.143 338.844C364.412 338.704 360.779 337.608 357.594 335.661C354.408 333.713 351.776 330.98 349.95 327.724C348.124 324.467 347.165 320.796 347.165 317.062V312.703H390.759V317.062Z" fill="#CA6740"/>
</g>
<defs>
<clipPath id="clip0_10_9">
<rect width="599" height="948" fill="white"/>
</clipPath>
</defs>
</svg>
