<svg width="599" height="948" viewBox="0 0 599 948" fill="none" xmlns="http://www.w3.org/2000/svg">
<path d="M299.212 0L598.424 172.75V518.25L299.212 948L0 518.25V172.75L299.212 0Z" fill="#BD903B"/>
<path d="M299.712 77L532.673 211.5V480.5L299.712 615L66.751 480.5V211.5L299.712 77Z" fill="#1C1C1C"/>
<path d="M234.087 290.25V237.75C234.087 234.269 235.47 230.931 237.931 228.469C240.392 226.008 243.731 224.625 247.212 224.625C250.693 224.625 254.031 226.008 256.493 228.469C258.954 230.931 260.337 234.269 260.337 237.75V290.25C260.337 293.731 258.954 297.069 256.493 299.531C254.031 301.992 250.693 303.375 247.212 303.375C243.731 303.375 240.392 301.992 237.931 299.531C235.47 297.069 234.087 293.731 234.087 290.25ZM400.337 237.75V439C400.337 442.481 398.954 445.819 396.493 448.281C394.031 450.742 390.693 452.125 387.212 452.125C383.731 452.125 380.392 450.742 377.931 448.281C375.47 445.819 374.087 442.481 374.087 439V390.875H325.962C322.481 390.875 319.142 389.492 316.681 387.031C314.22 384.569 312.837 381.231 312.837 377.75C313.247 356.444 315.934 335.243 320.854 314.509C331.89 268.834 353.043 238.111 382.038 225.719C384.032 224.864 386.207 224.516 388.368 224.707C390.53 224.898 392.61 225.622 394.423 226.814C396.235 228.006 397.725 229.629 398.757 231.537C399.789 233.446 400.332 235.58 400.337 237.75ZM374.087 262.819C359.431 278.219 351.118 301.187 346.491 320.197C343.029 334.799 340.754 349.656 339.688 364.625H374.087V262.819ZM299.712 236.656C299.422 233.175 297.761 229.952 295.094 227.696C292.428 225.44 288.974 224.335 285.493 224.625C282.012 224.915 278.789 226.576 276.533 229.243C274.276 231.909 273.172 235.363 273.462 238.844L277.837 290.753C277.837 298.875 274.61 306.665 268.867 312.408C263.124 318.152 255.334 321.378 247.212 321.378C239.09 321.378 231.3 318.152 225.557 312.408C219.813 306.665 216.587 298.875 216.587 290.753L220.962 238.844C221.105 237.12 220.908 235.385 220.381 233.738C219.854 232.09 219.008 230.563 217.891 229.243C216.774 227.922 215.407 226.835 213.87 226.043C212.333 225.25 210.654 224.769 208.931 224.625C207.207 224.481 205.472 224.679 203.825 225.206C202.177 225.732 200.65 226.579 199.329 227.696C198.009 228.813 196.922 230.179 196.129 231.717C195.337 233.254 194.855 234.933 194.712 236.656L190.337 289.156C190.337 289.528 190.337 289.889 190.337 290.25C190.358 303.046 194.685 315.462 202.621 325.5C210.557 335.537 221.641 342.611 234.087 345.583V439C234.087 442.481 235.47 445.819 237.931 448.281C240.392 450.742 243.731 452.125 247.212 452.125C250.693 452.125 254.031 450.742 256.493 448.281C258.954 445.819 260.337 442.481 260.337 439V345.583C272.783 342.611 283.866 335.537 291.803 325.5C299.739 315.462 304.066 303.046 304.087 290.25C304.087 289.889 304.087 289.528 304.087 289.156L299.712 236.656Z" fill="#BD903B"/>
</svg>
