<svg width="462" height="462" viewBox="0 0 462 462" fill="none" xmlns="http://www.w3.org/2000/svg">
<path fill-rule="evenodd" clip-rule="evenodd" d="M268.508 91.0165L231 22.4798L193.492 91.0165L126.74 50.4162L128.525 128.525L50.4162 126.74L91.0165 193.492L22.4797 231L91.0165 268.508L50.4162 335.26L128.525 333.475L126.74 411.584L193.492 370.983L231 439.52L268.508 370.983L335.26 411.584L333.475 333.475L411.584 335.26L370.983 268.508L439.52 231L370.983 193.492L411.584 126.74L333.475 128.525L335.26 50.4162L268.508 91.0165ZM231 88.5871L236.787 91.9285L290.687 123.048L294.646 125.333L354.333 159.794V228.714V233.286V302.207L294.647 336.667L290.687 338.953L236.787 370.072L231 373.413L225.212 370.072L171.313 338.953L167.353 336.667L107.667 302.207V233.286V228.714V159.794L167.354 125.333L171.313 123.048L225.213 91.9285L231 88.5871ZM338.386 169.001L231 107.002L123.614 169.001V293L231 354.999L338.386 293V169.001Z" fill="#306791"/>
<path d="M385 142.088V319.913L231 408.824L77 319.913V142.088L231 53.1763L385 142.088ZM225.213 91.9282L171.312 123.047L167.354 125.333L107.667 159.793V302.207L167.354 336.667L171.313 338.954L225.213 370.072L231 373.414L236.787 370.072L290.687 338.954L294.646 336.667L354.333 302.207V159.793L294.646 125.333L290.688 123.047L236.787 91.9282L231 88.5874L225.213 91.9282Z" fill="#83B5DC"/>
<path d="M231 107.002L338.386 169.001V293L231 354.999L123.614 293V169.001L231 107.002Z" fill="#83B5DC"/>
</svg>
